# xmcd
#
# Track frame offsets: 
#        150
#        45788
#        80333
#
# Disc length: 1585 seconds
#
# Revision: 2
# Processed by: cddbd v1.5.1PL2 Copyright (c) Steve Scherf et al.
# Submitted via: ExactAudioCopy v0.90b4
#
DISCID=12062f03
DTITLE=Surface Of Eceyon - Tussyan Ruins (EP)
DYEAR=2003
DGENRE=Psychedelic Rock
TTITLE0=Gathering Of Sephryn And Seabearde
TTITLE1=Dragon Breather
TTITLE2=Night Of Shimmering Ions
EXTD=
EXTT0=
EXTT1=
EXTT2=
PLAYORDER=
